/* XPM */
static char *_7359_a1f0e6cfaca43e580eb9cd00b2204d76a0a9eef0b3143901aebdaf9dfe74896d[] = {
/* columns rows colors chars-per-pixel */
"16 16 2 1 ",
"  c #242A96",
". c None",
/* pixels */
".       ........",
".        .......",
"..        ......",
"...        .....",
"....        ....",
".....        ...",
"......        ..",
"........       .",
"        .       ",
".       .       ",
"..      ..      ",
"...     ...     ",
"....    ....    ",
".....   .....   ",
"......  ......  ",
"....... ....... "
};
