/* XPM */
static char *_287_39c9fbd2d4a3a45b089ea6d3653d2370968b3d87bf7d3555c0422b3f55f7b44b[] = {
/* columns rows colors chars-per-pixel */
"64 64 2 1 ",
"  c #242A96",
". c None",
/* pixels */
".                             ..................................",
".                             .. ...............................",
"..                            ..  ..............................",
"...                           ..   .............................",
"....                          ..    ............................",
".....                         ..     ...........................",
"......                        ..      ..........................",
".......                       ..       .........................",
"........                      ..        ........................",
".........                     ..         .......................",
"..........                    ..          ......................",
"...........                   ..           .....................",
"............                  ..            ....................",
".............                 ..             ...................",
"..............                ..              ..................",
"...............               ..               .................",
"................              ..                ................",
".................             ..                 ...............",
"..................            ..                  ..............",
"...................           ..                   .............",
"....................          ..                    ............",
".....................         ..                     ...........",
"......................        ..                      ..........",
".......................       ..                       .........",
"........................      ..                        ........",
".........................     ..                         .......",
"..........................    ..                          ......",
"...........................   ..                           .....",
"............................  ..                            ....",
"............................. ..                             ...",
"................................                              ..",
"................................                               .",
".                               ................................",
"..                              ................................",
"...                             ..                              ",
"....                            ...                             ",
"....                            ....                            ",
".....                           .....                           ",
"......                          ......                          ",
".......                         .......                         ",
"........                        ........                        ",
".........                       .........                       ",
"..........                      ..........                      ",
"...........                     ...........                     ",
"............                    ............                    ",
".............                   .............                   ",
"..............                  ..............                  ",
"...............                 ...............                 ",
"................                ................                ",
".................               .................               ",
"..................              ..................              ",
"...................             ...................             ",
"....................            ....................            ",
".....................           .....................           ",
"......................          ......................          ",
".......................         .......................         ",
"........................        ........................        ",
".........................       .........................       ",
"..........................      ..........................      ",
"...........................     ...........................     ",
"............................    ............................    ",
".............................   .............................   ",
"..............................  ..............................  ",
"............................... ............................... "
};
