/* XPM */
static char *_3628_b5f48810f4bee70f9f9833a741cd83637d13ceb1d11164576578e5fcf6edabb9[] = {
/* columns rows colors chars-per-pixel */
"128 128 2 1 ",
"  c #242A96",
". c None",
/* pixels */
".                                                            ...................................................................",
".                                                            ... ...............................................................",
"..                                                           ...  ..............................................................",
"...                                                          ...   .............................................................",
"....                                                         ...    ............................................................",
".....                                                        ...     ...........................................................",
"......                                                       ...      ..........................................................",
".......                                                      ...       .........................................................",
"........                                                     ...        ........................................................",
".........                                                    ...         .......................................................",
"..........                                                   ...          ......................................................",
"...........                                                  ...           .....................................................",
"............                                                 ...            ....................................................",
".............                                                ...             ...................................................",
"..............                                               ...              ..................................................",
"...............                                              ...               .................................................",
"................                                             ...                ................................................",
".................                                            ...                 ...............................................",
"..................                                           ...                  ..............................................",
"...................                                          ...                   .............................................",
"....................                                         ...                    ............................................",
".....................                                        ...                     ...........................................",
"......................                                       ...                      ..........................................",
".......................                                      ...                       .........................................",
"........................                                     ...                        ........................................",
".........................                                    ...                         .......................................",
"..........................                                   ...                          ......................................",
"...........................                                  ...                           .....................................",
"............................                                 ...                            ....................................",
".............................                                ...                             ...................................",
"..............................                               ...                              ..................................",
"...............................                              ...                               .................................",
"................................                             ...                                ................................",
".................................                            ...                                 ...............................",
"..................................                           ...                                  ..............................",
"...................................                          ...                                   .............................",
"....................................                         ...                                    ............................",
".....................................                        ...                                     ...........................",
"......................................                       ...                                      ..........................",
".......................................                      ...                                       .........................",
"........................................                     ...                                        ........................",
".........................................                    ...                                         .......................",
"..........................................                   ...                                          ......................",
"...........................................                  ...                                           .....................",
"............................................                 ...                                            ....................",
".............................................                ...                                             ...................",
"..............................................               ...                                              ..................",
"...............................................              ...                                               .................",
"................................................             ...                                                ................",
".................................................            ...                                                 ...............",
"..................................................           ...                                                  ..............",
"...................................................          ...                                                   .............",
"....................................................         ...                                                    ............",
".....................................................        ...                                                     ...........",
"......................................................       ...                                                      ..........",
".......................................................      ...                                                       .........",
"........................................................     ...                                                        ........",
".........................................................    ...                                                         .......",
"..........................................................   ...                                                          ......",
"...........................................................  ...                                                           .....",
"............................................................ ...                                                            ....",
"................................................................                                                             ...",
"................................................................                                                              ..",
"................................................................                                                               .",
".                                                               ................................................................",
"..                                                              ................................................................",
"...                                                             ................................................................",
"....                                                            ...                                                             ",
".....                                                           ....                                                            ",
"......                                                          .....                                                           ",
".......                                                         ......                                                          ",
"........                                                        .......                                                         ",
".........                                                       ........                                                        ",
".........                                                       .........                                                       ",
"..........                                                      ..........                                                      ",
"...........                                                     ...........                                                     ",
"............                                                    ............                                                    ",
".............                                                   .............                                                   ",
"..............                                                  ..............                                                  ",
"...............                                                 ...............                                                 ",
"................                                                ................                                                ",
".................                                               .................                                               ",
"..................                                              ..................                                              ",
"...................                                             ...................                                             ",
"....................                                            ....................                                            ",
".....................                                           .....................                                           ",
"......................                                          ......................                                          ",
".......................                                         .......................                                         ",
"........................                                        ........................                                        ",
".........................                                       .........................                                       ",
"..........................                                      ..........................                                      ",
"...........................                                     ...........................                                     ",
"............................                                    ............................                                    ",
".............................                                   .............................                                   ",
"..............................                                  ..............................                                  ",
"...............................                                 ...............................                                 ",
"................................                                ................................                                ",
".................................                               .................................                               ",
"..................................                              ..................................                              ",
"...................................                             ...................................                             ",
"....................................                            ....................................                            ",
".....................................                           .....................................                           ",
"......................................                          ......................................                          ",
".......................................                         .......................................                         ",
"........................................                        ........................................                        ",
".........................................                       .........................................                       ",
"..........................................                      ..........................................                      ",
"...........................................                     ...........................................                     ",
"............................................                    ............................................                    ",
".............................................                   .............................................                   ",
"..............................................                  ..............................................                  ",
"...............................................                 ...............................................                 ",
"................................................                ................................................                ",
".................................................               .................................................               ",
"..................................................              ..................................................              ",
"...................................................             ...................................................             ",
"....................................................            ....................................................            ",
".....................................................           .....................................................           ",
"......................................................          ......................................................          ",
".......................................................         .......................................................         ",
"........................................................        ........................................................        ",
".........................................................       .........................................................       ",
"..........................................................      ..........................................................      ",
"...........................................................     ...........................................................     ",
"............................................................    ............................................................    ",
".............................................................   .............................................................   ",
"..............................................................  ..............................................................  ",
"............................................................... ............................................................... "
};
