/* XPM */
static char *_2391_38674a3233e1dbd7ecc1254ae7dcdb328a122e803cbd414df783581a987c8b8a[] = {
/* columns rows colors chars-per-pixel */
"32 32 2 1 ",
"  c #242A96",
". c None",
/* pixels */
".              .................",
".              . ...............",
"..             .  ..............",
"...            .   .............",
"....           .    ............",
".....          .     ...........",
"......         .      ..........",
".......        .       .........",
"........       .        ........",
".........      .         .......",
"..........     .          ......",
"...........    .           .....",
"............   .            ....",
".............  .             ...",
".............. .              ..",
"................               .",
".               ................",
"..              .               ",
"..              ..              ",
"...             ...             ",
"....            ....            ",
".....           .....           ",
"......          ......          ",
".......         .......         ",
"........        ........        ",
".........       .........       ",
"..........      ..........      ",
"...........     ...........     ",
"............    ............    ",
".............   .............   ",
"..............  ..............  ",
"............... ............... "
};
